<svg width="1174" height="2049" xmlns="http://www.w3.org/2000/svg" xmlns:xlink="http://www.w3.org/1999/xlink" xml:space="preserve" overflow="hidden"><defs><clipPath id="clip0"><rect x="2851" y="390" width="1000" height="1667"/></clipPath><clipPath id="clip1"><rect x="2851" y="390" width="1001" height="1667"/></clipPath><clipPath id="clip2"><rect x="2851" y="390" width="1001" height="1667"/></clipPath></defs><g transform="translate(-2763 -389)"><g><g clip-path="url(#clip0)"><g clip-path="url(#clip1)"><g clip-path="url(#clip2)"><path d="M-4.94169e-06 311.838 993.755 311.838 993.755 1627.1-4.94169e-06 1627.1Z" fill="#FF0000" fill-rule="nonzero" fill-opacity="1" transform="matrix(1.00628 0 0 1 2851 432.281)"/><path d="M71.1006 38.5897 71.1006 183.89 12.4079 183.89 12.4079-70.2066 58.2168-70.2066 176.676 79.0304 176.676-70.2066 235.369-70.2066 235.369 183.89 188.128 183.89Z" fill="#7D7D7D" fill-rule="nonzero" fill-opacity="1" transform="matrix(1.00628 0 0 1 2851 465.2)"/><path d="M395.616 186.037C376.768 186.037 359.589 182.339 344.081 174.943 328.573 167.547 315.331 157.884 304.356 145.954 293.381 133.786 284.792 119.948 278.589 104.44 272.624 88.9318 269.641 72.9464 269.641 56.4838 269.641 39.7826 272.743 23.6779 278.946 8.16966 285.388-7.33857 294.216-20.9381 305.43-32.6289 316.882-44.5583 330.362-53.9826 345.87-60.9016 361.379-68.0593 378.318-71.6381 396.69-71.6381 415.538-71.6381 432.717-67.94 448.225-60.5438 463.733-53.1475 476.975-43.3654 487.95-31.1974 498.925-19.0294 507.395-5.19128 513.359 10.317 519.324 25.8252 522.306 41.572 522.306 57.5574 522.306 74.2586 519.086 90.3633 512.644 105.872 506.44 121.38 497.732 135.099 486.518 147.028 475.305 158.719 461.944 168.143 446.435 175.301 430.927 182.458 413.987 186.037 395.616 186.037ZM329.408 57.1996C329.408 66.9817 330.839 76.5252 333.702 85.8301 336.565 94.8965 340.741 103.009 346.228 110.166 351.954 117.324 358.993 123.05 367.343 127.345 375.694 131.639 385.237 133.786 395.974 133.786 407.188 133.786 416.97 131.52 425.32 126.987 433.671 122.453 440.59 116.608 446.077 109.45 451.565 102.054 455.621 93.8229 458.246 84.7565 461.109 75.4516 462.54 66.0273 462.54 56.4838 462.54 46.7017 461.109 37.2774 458.246 28.2111 455.382 18.9061 451.088 10.7941 445.362 3.87508 439.636-3.28257 432.597-8.8894 424.247-12.9454 416.135-17.24 406.71-19.3873 395.974-19.3873 384.76-19.3873 374.978-17.1207 366.628-12.5875 358.516-8.29293 351.597-2.56681 345.87 4.59084 340.383 11.7485 336.208 19.9798 333.345 29.2847 330.72 38.3511 329.408 47.656 329.408 57.1996Z" fill="#7D7D7D" fill-rule="nonzero" fill-opacity="1" transform="matrix(1.00628 0 0 1 2851 465.2)"/><path d="M583.996-70.2066 643.763 110.166 702.813-70.2066 764.727-70.2066 668.457 183.89 619.069 183.89 521.725-70.2066Z" fill="#7D7D7D" fill-rule="nonzero" fill-opacity="1" transform="matrix(1.00628 0 0 1 2851 465.2)"/><path d="M835.688-70.2066 888.655-70.2066 981.347 183.89 921.222 183.89 901.539 126.987 822.447 126.987 803.121 183.89 742.997 183.89ZM891.876 86.5459 862.172-3.28257 831.752 86.5459Z" fill="#7D7D7D" fill-rule="nonzero" fill-opacity="1" transform="matrix(1.00628 0 0 1 2851 465.2)"/><path d="M794.964 1168.1 699.75 1168.1 699.75 1332.02 536.37 1332.02 536.37 1168.1 198.79 1168.1 198.79 1051.78 545.567 541.085 699.75 541.085 699.75 1038.26 794.964 1038.26ZM536.37 1038.26 536.37 904.091C536.37 881.73 537.271 849.271 539.075 806.713 540.878 764.155 542.321 739.449 543.403 732.597L539.075 732.597C525.73 762.171 509.681 791.024 490.926 819.155L345.94 1038.26Z" fill="#FFFFFF" fill-rule="nonzero" fill-opacity="1" transform="matrix(1.00628 0 0 1 2851 465.2)"/></g></g></g><rect x="2851" y="745" width="1000" height="1312" fill="#C00000" fill-opacity="1"/><text fill="#FFFFFF" fill-opacity="1" font-family="IBM Plex Sans,sans-serif" font-style="normal" font-variant="normal" font-weight="700" font-stretch="normal" font-size="633" text-anchor="start" direction="ltr" writing-mode="lr-tb" unicode-bidi="normal" text-decoration="none" transform="matrix(1 0 0 1 3161.22 1287)">4</text><text fill="#FFFFFF" fill-opacity="1" font-family="IBM Plex Sans,sans-serif" font-style="normal" font-variant="normal" font-weight="700" font-stretch="normal" font-size="633" text-anchor="start" direction="ltr" writing-mode="lr-tb" unicode-bidi="normal" text-decoration="none" transform="matrix(1 0 0 1 3144.88 1895)">C</text></g></g></svg>